<?xml version="1.0" encoding="utf-8"?>
<!-- Generator: Adobe Illustrator 24.3.0, SVG Export Plug-In . SVG Version: 6.00 Build 0)  -->
<svg version="1.1" xmlns="http://www.w3.org/2000/svg" xmlns:xlink="http://www.w3.org/1999/xlink" x="0px" y="0px"
	 viewBox="0 0 720 1624" style="enable-background:new 0 0 720 1624;" xml:space="preserve">
<style type="text/css">
	.st0{fill:none;stroke:#29ABE2;stroke-width:2;stroke-miterlimit:10;}
	.st1{fill:none;stroke:#FFFFFF;stroke-width:2;stroke-miterlimit:10;}
	.st2{fill:none;stroke:#FFFFFF;stroke-width:6;stroke-miterlimit:10;}
	.st3{fill:none;stroke:#000000;stroke-width:2;stroke-miterlimit:10;}
	.st4{fill:#FF0000;stroke:#000000;stroke-width:2;stroke-miterlimit:10;}
	.st5{fill:none;stroke:#FF0000;stroke-width:2;stroke-miterlimit:10;}
	.st6{fill:none;stroke:#009245;stroke-width:2;stroke-miterlimit:10;}
</style>
<g id="Layer_1">
	<path class="st0" d="M141.09,862.7v435.06c-0.39,20.35,1.22,78.53,41.74,132.51c62.83,83.68,165,85.06,177.17,85.02
		c13.65,0.14,92.04-0.34,154.49-63.57c61.85-62.63,61.89-140.07,61.66-153.96c0-145.02,0-290.04,0-435.06V143.47
		c2.22-2.4,14.23-15.88,13.02-36c-0.99-16.45-10.21-27.11-13.02-30.13c-145.02,0-290.04,0-435.06,0
		c-3.46,4.6-8.79,13.05-10.72,24.77c-3.71,22.48,7.9,39.7,10.72,43.66C141.09,384.74,141.09,623.72,141.09,862.7z"/>
	<path class="st1" d="M147.21,86.4c140.17,0.26,280.34,0.51,420.51,0.77"/>
</g>
<g id="Layer_2">
	<line class="st2" x1="506.7" y1="143.72" x2="506.7" y2="1148.66"/>
	<path class="st2" d="M500.57,1357c-4.37,11.15-22.83,54.43-71.49,79.66c-44.01,22.81-85.37,16.68-98.04,14.3"/>
</g>
<g id="Layer_3">
	<path class="st3" d="M141.09,1006.7"/>
	<path class="st3" d="M141.09,1297.77c-0.35,16.22-0.09,86.93,53.84,147.12c63.96,71.4,152.12,70.72,165.08,70.41
		c13.23-0.14,107.43-2.74,169.75-80.83c44.54-55.81,46.55-117.28,46.39-136.71c0-97.02,0-194.04,0-291.06H141.09V1297.77z"/>
</g>
<g id="Layer_4">
	<path class="st4" d="M141.09,571.64"/>
	<rect x="141.09" y="571.64" class="st5" width="435.06" height="435.06"/>
</g>
<g id="Layer_5">
	<polygon class="st6" points="141.09,145.77 576.15,143.47 576.15,571.64 141.09,571.64 	"/>
</g>
</svg>
